<svg xmlns="http://www.w3.org/2000/svg" width="1400" height="960" viewBox="0 0 1400 960">
  <defs>
    <style>
      .bg { fill: #f6f9fc; }
      .title { font: 700 36px "PingFang SC", "Microsoft YaHei", sans-serif; fill: #1a2636; }
      .subtitle { font: 500 18px "PingFang SC", "Microsoft YaHei", sans-serif; fill: #5e748e; }
      .card { fill: #ffffff; stroke: #c8d5e2; stroke-width: 2; rx: 22; ry: 22; }
      .head { font: 700 24px "PingFang SC", "Microsoft YaHei", sans-serif; fill: #21344c; }
      .small { font: 600 16px "PingFang SC", "Microsoft YaHei", sans-serif; fill: #43607b; }
      .text { font: 500 16px "PingFang SC", "Microsoft YaHei", sans-serif; fill: #32465c; }
      .tag1 { fill: #e5f0fb; }
      .tag2 { fill: #e8f6ec; }
      .tag3 { fill: #fff1de; }
      .tag4 { fill: #f1ebff; }
      .tag5 { fill: #fde8ea; }
    </style>
  </defs>
  <rect class="bg" width="1400" height="960"/>
  <text class="title" x="52" y="68">课程设计考核项完成度总览图</text>
  <text class="subtitle" x="52" y="104">将评分项与当前仓库中的文档、截图和报告材料一一对应，便于提交与答辩快速翻找</text>

  <g transform="translate(48,148)">
    <rect class="card" x="0" y="0" width="620" height="230"/>
    <rect class="tag1" x="22" y="22" width="150" height="34" rx="12" ry="12"/>
    <text class="small" x="40" y="45">架构设计文档 20%</text>
    <text class="head" x="24" y="96">架构 / UML / 数据流 / Wasm 预留</text>
    <text class="text" x="24" y="138">主文档：docs/architecture.md</text>
    <text class="text" x="24" y="168">配图：architecture-overview / module-uml / collab-dataflow / wasm-bridge</text>
    <text class="text" x="24" y="198">报告章节：系统架构设计</text>
  </g>

  <g transform="translate(732,148)">
    <rect class="card" x="0" y="0" width="620" height="230"/>
    <rect class="tag2" x="22" y="22" width="150" height="34" rx="12" ry="12"/>
    <text class="small" x="40" y="45">核心功能实现 40%</text>
    <text class="head" x="24" y="96">协同 / 版本 / Extrude / Undo / Smart Assist</text>
    <text class="text" x="24" y="138">主文档：docs/testing-matrix.md</text>
    <text class="text" x="24" y="168">证据图：collab-sync / version / extrude / undo-redo / smart-assist</text>
    <text class="text" x="24" y="198">报告章节：测试与结果分析</text>
  </g>

  <g transform="translate(48,432)">
    <rect class="card" x="0" y="0" width="400" height="196"/>
    <rect class="tag3" x="22" y="22" width="124" height="34" rx="12" ry="12"/>
    <text class="small" x="40" y="45">代码质量 15%</text>
    <text class="head" x="24" y="92">结构清晰，可运行可提交</text>
    <text class="text" x="24" y="132">README + GitHub 仓库</text>
    <text class="text" x="24" y="162">build / typecheck 证据</text>
  </g>

  <g transform="translate(500,432)">
    <rect class="card" x="0" y="0" width="400" height="196"/>
    <rect class="tag4" x="22" y="22" width="124" height="34" rx="12" ry="12"/>
    <text class="small" x="40" y="45">创新性 15%</text>
    <text class="head" x="24" y="92">轻量 AI + Wasm 扩展叙事</text>
    <text class="text" x="24" y="132">Smart Assist 实图</text>
    <text class="text" x="24" y="162">OpenCASCADE/Wasm 预留图</text>
  </g>

  <g transform="translate(952,432)">
    <rect class="card" x="0" y="0" width="400" height="196"/>
    <rect class="tag5" x="22" y="22" width="124" height="34" rx="12" ry="12"/>
    <text class="small" x="40" y="45">演示与答辩 10%</text>
    <text class="head" x="24" y="92">演示脚本 + 总表 + 报告 PDF</text>
    <text class="text" x="24" y="132">defense-script.md</text>
    <text class="text" x="24" y="162">completion-matrix.md / main.pdf</text>
  </g>

  <g transform="translate(48,682)">
    <rect class="card" x="0" y="0" width="1304" height="208"/>
    <text class="head" x="28" y="56">推荐提交顺序</text>
    <text class="text" x="28" y="102">1. report-latex/main.pdf</text>
    <text class="text" x="28" y="136">2. README.md + docs/completion-matrix.md</text>
    <text class="text" x="28" y="170">3. architecture.md + testing-matrix.md + 关键验收截图</text>
    <text class="text" x="660" y="102">答辩时优先展示：双窗口协同图 -&gt; 版本图 -&gt; Extrude 图 -&gt; Smart Assist 图</text>
    <text class="text" x="660" y="136">老师追问架构时切到：总体架构图 -&gt; UML 图 -&gt; Wasm 预留图</text>
  </g>
</svg>
