<svg width="1600" height="900" viewBox="0 0 1600 900" fill="none" xmlns="http://www.w3.org/2000/svg">
  <defs>
    <linearGradient id="bg" x1="0" y1="0" x2="1600" y2="900" gradientUnits="userSpaceOnUse">
      <stop stop-color="#F8F4EC"/>
      <stop offset="1" stop-color="#EEE2D2"/>
    </linearGradient>
    <linearGradient id="accent" x1="350" y1="220" x2="1230" y2="650" gradientUnits="userSpaceOnUse">
      <stop stop-color="#0EA5E9"/>
      <stop offset="1" stop-color="#F97316"/>
    </linearGradient>
  </defs>
  <rect width="1600" height="900" fill="url(#bg)"/>
  <circle cx="1320" cy="170" r="120" fill="#0EA5E9" fill-opacity="0.12"/>
  <circle cx="250" cy="760" r="160" fill="#F97316" fill-opacity="0.12"/>
  <rect x="94" y="92" width="1412" height="716" rx="36" fill="#FFFDF9" stroke="#E8DECF" stroke-width="2"/>

  <text x="140" y="200" font-size="32" font-family="Arial, Helvetica, sans-serif" fill="#0F766E" font-weight="700">研究生课程设计</text>
  <text x="140" y="300" font-size="64" font-family="Arial, Helvetica, sans-serif" fill="#1F2937" font-weight="700">基于云的协同机械 CAD 系统</text>
  <text x="140" y="380" font-size="64" font-family="Arial, Helvetica, sans-serif" fill="#1F2937" font-weight="700">设计与实现</text>
  <text x="140" y="450" font-size="30" font-family="Arial, Helvetica, sans-serif" fill="#57534E">Cloud Collaborative Mechanical CAD System Design and Implementation</text>

  <rect x="140" y="520" width="560" height="120" rx="28" fill="#F4EFE7"/>
  <text x="180" y="575" font-size="28" font-family="Arial, Helvetica, sans-serif" fill="#1F2937" font-weight="700">关键词</text>
  <text x="180" y="620" font-size="24" font-family="Arial, Helvetica, sans-serif" fill="#57534E">Three.js / WebSocket / JSON Versioning / Smart Assist</text>

  <rect x="840" y="170" width="540" height="420" rx="34" fill="#F9F5EE" stroke="#E6DCCB"/>
  <rect x="880" y="210" width="460" height="52" rx="16" fill="#EFE6DA"/>
  <rect x="910" y="290" width="120" height="220" rx="20" fill="#FFFFFF" stroke="#E6DCCB"/>
  <rect x="1050" y="290" width="140" height="220" rx="20" fill="#FFFFFF" stroke="#E6DCCB"/>
  <rect x="1210" y="290" width="90" height="220" rx="20" fill="#FFFFFF" stroke="#E6DCCB"/>
  <rect x="1058" y="390" width="140" height="78" rx="18" fill="url(#accent)" fill-opacity="0.85"/>
  <rect x="1200" y="410" width="70" height="58" rx="12" fill="#6D4CD3" fill-opacity="0.9"/>
  <path d="M1090 390 L1090 330 L1140 330 L1140 390" stroke="#4C51BF" stroke-width="6" stroke-linecap="round"/>

  <text x="140" y="745" font-size="26" font-family="Arial, Helvetica, sans-serif" fill="#57534E">前端重计算 · 后端轻协同 · 可稳定演示的课程设计 MVP</text>
</svg>
